<?xml version="1.0" encoding="UTF-8" standalone="no"?><!DOCTYPE svg PUBLIC "-//W3C//DTD SVG 1.1//EN" "http://www.w3.org/Graphics/SVG/1.1/DTD/svg11.dtd"><svg width="100%" height="100%" viewBox="0 0 260 262" version="1.1" xmlns="http://www.w3.org/2000/svg" xmlns:xlink="http://www.w3.org/1999/xlink" xml:space="preserve" xmlns:serif="http://www.serif.com/" style="fill-rule:evenodd;clip-rule:evenodd;stroke-linecap:square;stroke-miterlimit:1.5;"><g><path d="M143.651,60.381l11.993,-7.307l12.724,-5.63l9.087,9.715l12.73,-4.552l32.613,-3.551" style="fill:none;stroke:#d74227;stroke-width:5px;"/><path d="M143.651,69.879l18.243,15.877l15.797,8.293l22.511,-2.004l20.796,-9.853" style="fill:none;stroke:#cf3587;stroke-width:5px;"/><path d="M143.651,92.045l21.552,-23.564l10.57,13.711l11.138,-12.093l16.594,-19.095l16.063,15.452" style="fill:none;stroke:#a8bd3a;stroke-width:5px;"/><rect x="41.367" y="35.067" width="13.743" height="78.314" style="fill:#ebebeb;"/><rect x="41.367" y="35.067" width="13.743" height="78.314" style="fill:#a8bd3a;"/><rect x="37.202" y="143.293" width="51.893" height="57.861" style="fill:#a8bd3a;"/><rect x="61.83" y="51.004" width="13.743" height="62.377" style="fill:#cf3587;"/><rect x="91.949" y="143.293" width="27.841" height="57.861" style="fill:#cf3587;"/><rect x="81.4" y="44.636" width="13.743" height="68.745" style="fill:#d74227;"/><rect x="37.202" y="203.264" width="22.057" height="22.225" style="fill:#d74227;"/><rect x="99.734" y="68.481" width="13.743" height="44.899" style="fill:#003c57;"/><rect x="61.83" y="203.039" width="57.961" height="22.449" style="fill:#003c57;"/><path d="M37.202,35.067l0,78.313l79.147,0" style="fill:none;stroke:#000;stroke-width:3px;stroke-linejoin:round;"/><path d="M143.651,103.547l11.857,0l32.196,-17.285l16.139,-10.183l18.955,-43.694" style="fill-opacity:0;stroke:#003c57;stroke-width:5px;"/><path d="M141.651,35.067l0,78.313l79.147,0" style="fill:none;stroke:#000;stroke-width:3px;stroke-linejoin:round;"/><path d="M181.768,143.293l-11.533,0l-4.701,19.342l6.627,12.46l-2.157,5.326l9.886,2.375l2.867,13.597l-8.516,2.237l1.615,8.866l-6.562,3.779l5.662,3.756l9.155,0.334l-13.337,8.93l-3.714,5.32l16.826,-5.298l25.71,-4.828l2.603,-14.821l-13.855,-16.262l-14.493,-20.969l6.739,-13.524l-13.054,-1.607l4.232,-9.013Z" style="fill:#c2c2c2;"/><circle cx="205.184" cy="204.468" r="9.586" style="fill:#a8bd3a;"/><circle cx="183.225" cy="212.099" r="6.45" style="fill:#cf3587;"/><circle cx="180.146" cy="163.22" r="5.372" style="fill:#003c57;"/><circle cx="187.085" cy="189.285" r="3.86" style="fill:#d74227;"/></g></svg>